<svg xmlns="http://www.w3.org/2000/svg" width="230" height="28"><g fill="none" fill-rule="evenodd"><g fill="#fff"><path d="M 209.454 0.464 v 27.072 h 20.613 v -5.298 h -14.696 v -5.685 h 14.161 v -5.3 h -14.16 v -5.49 h 14.502 v -5.3 Z M 89.97 27.923 c -4.1 0 -8.238 -1.431 -11.487 -4.332 l 3.52 -4.215 c 2.436 2.01 4.988 3.287 8.082 3.287 c 2.437 0 3.906 -0.967 3.906 -2.552 v -0.078 c 0 -1.508 -0.927 -2.281 -5.453 -3.442 c -5.453 -1.392 -8.972 -2.9 -8.972 -8.276 v -0.077 c 0 -4.912 3.945 -8.16 9.475 -8.16 c 3.946 0 7.31 1.237 10.055 3.44 l -3.094 4.488 c -2.397 -1.664 -4.757 -2.67 -7.038 -2.67 c -2.282 0 -3.48 1.045 -3.48 2.36 v 0.078 c 0 1.779 1.16 2.359 5.84 3.558 c 5.491 1.43 8.584 3.403 8.584 8.12 v 0.078 c 0 5.376 -4.099 8.393 -9.939 8.393 M 115.78 28 c -7.965 0 -13.883 -6.15 -13.883 -13.922 V 14 c 0 -7.696 5.802 -14 14.116 -14 c 5.106 0 8.16 1.702 10.674 4.177 l -3.79 4.37 c -2.088 -1.895 -4.215 -3.055 -6.922 -3.055 c -4.563 0 -7.851 3.79 -7.851 8.43 V 14 c 0 4.64 3.21 8.508 7.85 8.508 c 3.095 0 4.99 -1.237 7.117 -3.171 l 3.79 3.829 c -2.785 2.978 -5.878 4.834 -11.1 4.834 M 195.854 28 c -7.966 0 -13.884 -6.15 -13.884 -13.922 V 14 c 0 -7.696 5.802 -14 14.116 -14 c 5.106 0 8.16 1.702 10.674 4.177 l -3.79 4.37 c -2.088 -1.895 -4.215 -3.055 -6.922 -3.055 c -4.563 0 -7.851 3.79 -7.851 8.43 V 14 c 0 4.64 3.21 8.508 7.85 8.508 c 3.095 0 4.99 -1.237 7.117 -3.171 l 3.79 3.829 c -2.785 2.978 -5.878 4.834 -11.1 4.834 M 129.381 27.536 h 5.955 V 0.464 h -5.955 Z M 173.592 0.464 v 16.668 L 160.906 0.464 h -5.49 v 5.298 H 141.16 v 5.531 h 14.254 v 5.254 h -14.254 l 0.034 5.671 h 14.22 v 5.318 h 5.878 v -17.21 l 13.111 17.21 h 5.066 V 0.464 Z"/></g><g fill="#faae39"><path d="M 0 0.367 h 3.055 v 24.25 h 15.238 v 2.822 H 0 Z M 21.388 27.439 h 3.055 V 0.367 h -3.055 Z M 50.24 0.367 h 3.288 L 41.886 27.632 h -2.707 L 27.539 0.367 h 3.403 l 9.63 23.321 Z M 76.192 3.152 H 59.678 v 9.243 h 14.774 v 2.785 H 59.678 v 9.475 h 16.707 v 2.784 H 56.623 V 0.368 h 19.569 Z"/></g></g></svg>